<svg xmlns="http://www.w3.org/2000/svg" viewBox="0 0 32 32" width="32" height="32">
  <!-- 背景渐变 -->
  <defs>
    <linearGradient id="bg" x1="0%" y1="0%" x2="100%" y2="100%">
      <stop offset="0%" style="stop-color:#4F46E5;stop-opacity:1" />
      <stop offset="100%" style="stop-color:#7C3AED;stop-opacity:1" />
    </linearGradient>
    <linearGradient id="brain" x1="0%" y1="0%" x2="100%" y2="100%">
      <stop offset="0%" style="stop-color:#10B981;stop-opacity:1" />
      <stop offset="100%" style="stop-color:#059669;stop-opacity:1" />
    </linearGradient>
  </defs>

  <!-- 背景圆角矩形 -->
  <rect x="2" y="2" width="28" height="28" rx="6" fill="url(#bg)"/>

  <!-- AI大脑图标 -->
  <g transform="translate(8, 6)">
    <!-- 大脑主体 -->
    <path d="M8 3 C6 3, 4 5, 4 7 C4 8, 4.5 9, 5 9.5 C4.5 10, 4 11, 4 12 C4 14, 6 16, 8 16 C9 16, 10 15.5, 10.5 15 C11 15.5, 12 16, 13 16 C15 16, 17 14, 17 12 C17 11, 16.5 10, 16 9.5 C16.5 9, 17 8, 17 7 C17 5, 15 3, 13 3 C12 3, 11 3.5, 10.5 4 C10 3.5, 9 3, 8 3 Z" fill="url(#brain)" opacity="0.9"/>

    <!-- AI神经线条 -->
    <path d="M6 8 L8 10 L10 8 M6 12 L8 10 L10 12 M14 8 L12 10 L10 8 M14 12 L12 10 L10 12" stroke="white" stroke-width="1" fill="none" opacity="0.7"/>

    <!-- 书本 -->
    <rect x="7" y="12" width="10" height="2" rx="0.5" fill="white" opacity="0.8"/>
    <rect x="7" y="14" width="8" height="1" rx="0.5" fill="white" opacity="0.6"/>
    <rect x="7" y="15" width="6" height="1" rx="0.5" fill="white" opacity="0.4"/>
  </g>

  <!-- 高光效果 -->
  <ellipse cx="11" cy="8" rx="4" ry="3" fill="white" opacity="0.2"/>
</svg>